<svg width="588" height="450" viewBox="0 0 588 450" fill="none" xmlns="http://www.w3.org/2000/svg">
<path d="M222.323 20.7058C222.324 20.6345 222.325 20.5639 222.325 20.4939C222.325 9.17543 213.369 0 202.322 0C191.275 0 182.32 9.17543 182.32 20.4939C182.32 20.53 182.32 20.5662 182.32 20.6026C182.403 28.7041 179.691 36.5871 174.641 42.9261C168.042 51.2085 164.743 58.8094 164.743 65.7286C164.743 68.9025 165.486 72.5011 166.971 76.5246C170.74 86.735 169.58 98.1119 163.827 107.353C158.254 116.305 155.468 124.286 155.468 131.294C155.468 135.8 156.672 141.069 159.079 147.1C163.153 157.311 162.23 168.835 156.582 178.268C149.991 189.274 146.696 198.904 146.696 207.157C146.696 238.633 171.601 264.15 202.322 264.15C233.044 264.15 257.949 238.633 257.949 207.157C257.949 198.904 254.654 189.274 248.063 178.268C242.415 168.835 241.491 157.311 245.566 147.1C247.973 141.069 249.177 135.8 249.177 131.294C249.177 124.214 246.336 116.16 240.656 107.134C234.86 97.9245 233.643 86.5586 237.356 76.3327C238.791 72.3813 239.509 68.8466 239.509 65.7286C239.509 58.8958 236.286 51.3734 229.839 43.1614C224.819 36.7653 222.163 28.8328 222.323 20.7058Z" fill="#8FD8FC"/>
<path d="M202.162 172.285V143.547L222.359 117.191C222.556 116.934 222.507 116.566 222.25 116.369C221.993 116.172 221.624 116.221 221.427 116.478L201.109 142.992C201.03 143.094 200.988 143.22 200.988 143.349V170.754L181.99 145.962C181.793 145.705 181.424 145.656 181.167 145.853C180.91 146.05 180.861 146.418 181.058 146.675L200.988 172.682V175.388C200.988 175.594 201.094 175.776 201.255 175.88L201.255 201.355L201.109 201.546C201.03 201.648 200.988 201.774 200.988 201.902V223.302L181.99 198.51C181.793 198.253 181.424 198.204 181.167 198.401C180.91 198.598 180.861 198.966 181.058 199.223L200.988 225.231V233.942C200.988 234.148 201.094 234.329 201.255 234.434V249.797C201.198 249.889 201.166 249.997 201.166 250.107L201.166 297.277C201.166 297.601 201.429 297.864 201.753 297.864C202.077 297.864 202.34 297.601 202.34 297.277L202.34 257.731C202.397 257.641 202.429 257.535 202.429 257.42V250.255L223.541 228.624C223.767 228.392 223.763 228.021 223.531 227.795C223.299 227.569 222.927 227.574 222.701 227.805L202.429 248.575V225.381C202.429 225.252 202.387 225.127 202.308 225.024L202.162 224.833V205.364C202.323 205.26 202.429 205.079 202.429 204.872V201.752L222.359 175.745C222.556 175.488 222.507 175.12 222.25 174.923C221.993 174.726 221.624 174.775 221.427 175.032L202.429 199.823L202.429 172.833C202.429 172.704 202.387 172.579 202.308 172.476L202.162 172.285Z" fill="#0070AD"/>
<ellipse rx="52.0602" ry="119.399" transform="matrix(-1 0 0 1 94.4721 170.228)" fill="#BFEAFF"/>
<path d="M94.3115 219.673L94.3115 196.941L114.509 170.584C114.706 170.327 114.657 169.959 114.4 169.762C114.143 169.566 113.774 169.614 113.577 169.872L93.2586 196.386C93.1802 196.488 93.1377 196.613 93.1377 196.742L93.1377 218.141L74.1395 193.35C73.9424 193.093 73.5741 193.044 73.3167 193.241C73.0594 193.438 73.0105 193.806 73.2075 194.063L93.1377 220.07V228.782C93.1377 228.988 93.2442 229.169 93.4052 229.274V245.438L74.1395 220.297C73.9424 220.04 73.5741 219.991 73.3167 220.188C73.0594 220.385 73.0105 220.753 73.2075 221.01L93.4052 247.367L93.4052 271.584C93.3475 271.677 93.3162 271.784 93.3162 271.894V319.065C93.3162 319.388 93.579 319.651 93.9031 319.651C94.2272 319.651 94.49 319.388 94.49 319.065V279.518C94.5463 279.428 94.5789 279.322 94.5789 279.208V272.042L115.691 250.411C115.917 250.179 115.913 249.808 115.681 249.582C115.448 249.356 115.077 249.361 114.851 249.593L94.5789 270.362L94.5789 220.221C94.5789 220.092 94.5364 219.966 94.458 219.864L94.3115 219.673Z" fill="#0070AD"/>
<ellipse rx="52.0602" ry="119.399" transform="matrix(-1 0 0 1 519.104 185.561)" fill="#8FD8FC"/>
<path d="M518.943 235.006V212.274L539.141 185.918C539.338 185.661 539.289 185.293 539.032 185.096C538.774 184.899 538.406 184.948 538.209 185.205L517.89 211.719C517.812 211.822 517.77 211.947 517.77 212.076V233.475L498.771 208.683C498.574 208.426 498.206 208.378 497.949 208.574C497.691 208.771 497.642 209.139 497.839 209.396L517.77 235.404V244.115C517.77 244.321 517.876 244.503 518.037 244.607V260.771L498.771 235.631C498.574 235.374 498.206 235.325 497.949 235.522C497.691 235.719 497.642 236.087 497.839 236.344L518.037 262.7V286.918C517.979 287.01 517.948 287.117 517.948 287.228V334.398C517.948 334.722 518.211 334.984 518.535 334.984C518.859 334.984 519.122 334.722 519.122 334.398V294.852C519.178 294.762 519.211 294.655 519.211 294.541V287.375L540.323 265.745C540.549 265.513 540.544 265.142 540.312 264.916C540.08 264.69 539.709 264.694 539.482 264.926L519.211 285.696V235.554C519.211 235.425 519.168 235.3 519.09 235.198L518.943 235.006Z" fill="#0070AD"/>
<path d="M466.775 404.064C448.642 406.614 440.447 333.972 437.585 313.596C434.722 293.22 447.102 274.635 465.235 272.085C483.368 269.535 500.388 283.986 503.25 304.362C506.112 324.739 484.908 401.515 466.775 404.064Z" fill="#BFEAFF"/>
<path d="M470.391 414.856C470.391 415.138 470.163 415.366 469.881 415.366C469.599 415.366 469.371 415.138 469.371 414.856V308.444C469.371 308.162 469.599 307.934 469.881 307.934C470.163 307.934 470.391 308.162 470.391 308.444V414.856Z" fill="#22537F"/>
<path d="M473.177 419.821C459.563 411.637 495.238 355.581 504.867 339.546C514.496 323.512 533.339 317.149 546.953 325.333C560.567 333.518 563.797 353.151 554.168 369.186C544.539 385.22 486.791 428.006 473.177 419.821Z" fill="#8FD8FC"/>
<path d="M474.057 421.771C469.269 411.497 529.966 384.536 546.91 376.631C563.854 368.725 581.471 370.645 586.259 380.919C591.047 391.193 581.193 405.93 564.249 413.836C547.305 421.741 478.846 432.045 474.057 421.771Z" fill="#BFEAFF"/>
<path d="M476.662 421.213C476.393 421.295 476.107 421.144 476.025 420.875C475.942 420.605 476.093 420.32 476.362 420.237L541.908 400.077C542.177 399.995 542.463 400.146 542.546 400.415C542.628 400.685 542.477 400.97 542.208 401.053L476.662 421.213Z" fill="#22537F"/>
<path d="M475.876 417.233C475.691 417.445 475.369 417.467 475.156 417.282C474.944 417.096 474.922 416.774 475.108 416.562L527.646 356.338C527.832 356.126 528.154 356.104 528.366 356.289C528.578 356.475 528.6 356.797 528.415 357.01L475.876 417.233Z" fill="#22537F"/>
<path d="M475.107 420.885C467.526 429.309 419.006 383.941 405.113 371.425C391.219 358.908 386.101 341.932 393.682 333.507C401.263 325.083 418.672 328.401 432.566 340.918C446.459 353.435 482.688 412.461 475.107 420.885Z" fill="#8FD8FC"/>
<path d="M468.338 410.276C468.513 410.497 468.475 410.818 468.254 410.993C468.034 411.168 467.713 411.131 467.538 410.91L434.637 369.315C434.463 369.094 434.5 368.773 434.721 368.598C434.942 368.423 435.263 368.46 435.437 368.681L468.338 410.276Z" fill="#22537F"/>
<path d="M477.106 420.747C475.152 428.046 426.69 414.204 412.984 410.53C399.279 406.855 389.753 397.96 391.708 390.661C393.663 383.362 406.357 380.424 420.063 384.098C433.768 387.772 479.061 413.448 477.106 420.747Z" fill="#CBEFFC"/>
<path d="M476.422 419.731C476.689 419.823 476.831 420.113 476.74 420.38C476.648 420.646 476.358 420.788 476.092 420.697L420.238 401.558C419.971 401.467 419.829 401.177 419.92 400.91C420.012 400.643 420.302 400.501 420.568 400.593L476.422 419.731Z" fill="#22537F"/>
<path fill-rule="evenodd" clip-rule="evenodd" d="M173.854 321.373C173.85 321.546 173.831 321.718 173.796 321.887C173.476 323.458 171.941 324.471 170.369 324.151C168.304 323.731 166.693 322.117 166.278 320.054L141.776 198.208C141.627 197.468 141.527 196.719 141.477 195.966C140.842 186.479 148.028 178.275 157.528 177.641C158.063 177.605 158.599 177.593 159.135 177.605C169.064 177.83 176.931 186.052 176.705 195.968L173.854 321.373Z" fill="#FFC55F"/>
<path d="M151.97 206.208C139.522 210.722 118.489 190.64 124.797 167.983C131.104 145.326 136.691 131.74 130.744 124.705C124.797 117.67 146.299 121.114 146.299 134.615C146.299 148.117 147.936 100.894 164.418 88.1006C167.295 103.763 172.606 115.965 180.35 124.705C191.967 137.816 189.531 148.166 184.704 160.664C190.291 161.763 192.759 160.383 192.107 156.524C199.547 163.554 192.306 193.143 175.003 201.281C157.699 209.419 164.418 201.693 151.97 206.208Z" fill="#F95B03"/>
<path fill-rule="evenodd" clip-rule="evenodd" d="M176.737 200.376C176.171 200.701 175.593 201.004 175.003 201.281C157.699 209.419 164.418 201.693 151.97 206.208C149.413 207.135 146.493 207.025 143.523 206.067L142.178 197.752C142.112 197.342 142.061 196.929 142.024 196.515C141.199 187.092 148.178 178.785 157.613 177.961C157.938 177.933 158.264 177.913 158.59 177.903C168.216 177.604 176.263 185.154 176.562 194.768L176.737 200.376Z" fill="#EC961F"/>
<path d="M153.784 194.178L159.493 183.036C160.427 181.214 163.164 182.613 162.23 184.435L156.52 195.577C155.586 197.399 152.85 196 153.784 194.178Z" fill="#1C2229"/>
<path d="M159.44 197L165.15 185.858C166.084 184.036 168.821 185.435 167.887 187.257L162.177 198.399C161.243 200.221 158.507 198.822 159.44 197Z" fill="#1C2229"/>
<ellipse rx="17.9778" ry="10.6755" transform="matrix(-0.309017 -0.951057 -0.951057 0.309017 155.53 282.217)" fill="#FFAA83"/>
<path fill-rule="evenodd" clip-rule="evenodd" d="M249.001 295.976L254.94 305.448C256.028 307.183 258.633 305.553 257.546 303.819L251.607 294.347C250.519 292.612 247.914 294.242 249.001 295.976L249.001 295.976Z" fill="#ED5738"/>
<path d="M183.099 274.574C201.074 279.315 227.886 286.82 250.297 295.184C240.412 264.026 230.93 221.839 237.721 207.632C247.537 187.1 261.647 194.992 269.084 206.854C276.35 218.441 301.911 304.987 293.938 328.131C297.019 342.06 288.48 348.582 270.525 344.913C257.824 342.318 227.358 326.797 179.128 298.352C176.91 298.8 173.906 297.403 172.645 295.586C172.31 295.103 172.009 294.563 171.737 293.975C167.108 291.221 162.326 288.357 157.392 285.383C156.664 281.479 156.375 278.283 156.526 275.795C156.502 275.785 156.479 275.776 156.456 275.765C148.823 272.408 161.073 258.176 165.809 259.917C168.957 261.073 173.031 260.44 178.104 265.001C180.319 266.993 182.027 270.516 183.099 274.574Z" fill="#FFAA83"/>
<path d="M153.345 271.634C153.141 271.954 152.989 272.227 152.888 272.443C154.621 273.26 157.229 273.272 160.882 271.983C164.192 270.816 166.281 269.868 167 269.263C168.231 268.226 170.027 269.539 169.41 271.025C167.91 274.634 167.91 277.856 169.368 280.802C170.109 282.3 170.773 283.268 171.278 283.675C171.305 283.697 171.33 283.715 171.352 283.731C171.991 283.241 172.909 283.325 173.446 283.939C174.005 284.577 173.939 285.547 173.3 286.105C172.106 287.147 170.616 287.087 169.347 286.063C168.419 285.315 167.534 284.025 166.612 282.162C165.273 279.457 164.894 276.564 165.458 273.523C164.459 273.945 163.277 274.394 161.906 274.878C156.999 276.609 153.242 276.373 150.675 274.721C149.806 274.162 149.529 273.211 149.736 272.207C149.871 271.552 150.213 270.829 150.753 269.984C151.712 268.481 153.377 266.483 155.765 263.955C156.347 263.339 157.32 263.31 157.938 263.892C158.555 264.474 158.583 265.445 158.001 266.062C155.735 268.461 154.178 270.329 153.345 271.634Z" fill="#ED5738"/>
<path d="M250.381 182.424C271.266 162.964 405.257 182.327 414.323 199.633C423.39 216.939 396.861 332.851 371.649 347.944C346.438 363.038 287.747 364.623 265.357 336.787C242.968 308.951 229.496 201.885 250.381 182.424Z" fill="#FFAA83"/>
<path d="M248.964 278.002C236.942 278.527 226.391 274.028 224.746 262.716C221.552 240.754 227.016 202.453 242.934 186.142C248.653 180.283 253.692 178.082 257.945 178.301C266.651 175.3 280.166 174.128 295.691 174.305C308.351 174.449 281.421 257.648 325.777 262.304C381.933 268.198 356.833 180.045 366.37 181.913C391.236 186.783 411.029 193.344 414.323 199.633C421.77 213.847 405.205 294.574 385.08 331.333C380.702 339.331 398.385 374.236 393.88 376.933C371.897 390.093 357.757 387.887 317.904 388.99C278.052 390.093 255.032 370.533 255.668 362.834C256.692 350.434 258.757 332.047 256.296 316.346C255.051 308.405 251.974 294.276 248.964 278.002Z" fill="#5296FB"/>
<path d="M293.278 212.491C293.18 211.308 294.062 210.27 295.246 210.173C296.431 210.076 297.47 210.956 297.567 212.139C300.067 242.541 309.538 258.19 325.732 259.89C337.182 261.092 346.56 256.261 353.405 246.558C359.55 237.848 363.234 225.617 363.726 213.265C363.773 212.079 364.774 211.155 365.962 211.203C367.149 211.25 368.074 212.249 368.026 213.435C367.503 226.571 363.578 239.6 356.923 249.034C349.223 259.949 338.372 265.539 325.282 264.165C306.512 262.195 295.926 244.702 293.278 212.491Z" fill="white"/>
<path d="M245.932 273.395C238.81 271.722 231.137 267.618 224.366 261.52C223.735 260.952 223.685 259.981 224.253 259.352C224.822 258.722 225.794 258.672 226.424 259.24C233.049 265.206 239.805 268.915 246.718 270.362C247.306 272.455 248.5 273.395 245.932 273.395Z" fill="white"/>
<path d="M249.516 275.701C249.766 276.511 249.311 277.371 248.5 277.621C247.689 277.87 246.828 277.416 246.578 276.606C243.219 265.735 241.819 257.905 242.413 252.996C242.515 252.154 243.281 251.555 244.123 251.656C244.966 251.758 245.567 252.523 245.465 253.364C244.937 257.729 246.276 265.215 249.516 275.701Z" fill="#1D5EF8"/>
<path d="M292.312 192.301C286.809 190.559 276.898 181.839 278.471 175.037C280.104 167.97 285.754 163.238 291.088 164.468C291.296 164.516 291.5 164.572 291.701 164.636C291.882 163.489 292.096 162.382 292.341 161.321C298.099 136.414 323.383 120.975 348.814 126.839C374.245 132.703 390.193 157.647 384.435 182.555C378.677 207.463 349.203 248.239 323.772 242.376C306.867 238.478 296.004 214.953 292.312 192.301Z" fill="#FFAA83"/>
<path fill-rule="evenodd" clip-rule="evenodd" d="M319.128 163.328L327.778 171.384C328.867 172.398 328.927 174.101 327.911 175.189C326.896 176.277 325.19 176.336 324.101 175.322L315.451 167.266C314.362 166.252 314.302 164.548 315.318 163.461C316.333 162.373 318.039 162.314 319.128 163.328Z" fill="#253238"/>
<path fill-rule="evenodd" clip-rule="evenodd" d="M357.761 170.311L368.803 166.078C370.193 165.545 371.753 166.239 372.286 167.627C372.82 169.015 372.125 170.572 370.735 171.105L359.694 175.338C358.303 175.871 356.744 175.178 356.21 173.79C355.677 172.401 356.371 170.844 357.761 170.311Z" fill="#22537F"/>
<path fill-rule="evenodd" clip-rule="evenodd" d="M344.489 176.56C345.249 174.724 342.552 173.517 341.685 175.305L330.114 199.169C327.375 201.055 327.848 203.796 330.584 205.563C332.717 206.942 336.001 207.706 338.576 207.363C341.957 206.913 345.576 204.971 349.469 201.588C350.417 200.765 350.029 199.216 348.806 198.934C346.695 198.447 344.388 196.917 341.919 194.295C339.839 192.088 340.539 186.112 344.489 176.56ZM332.092 201.549C332.352 201.395 332.561 201.168 332.692 200.897L337.706 190.557C337.731 193.076 338.379 195.019 339.679 196.399C341.609 198.447 343.515 199.96 345.409 200.923C342.747 202.908 340.328 204.032 338.17 204.319C336.329 204.565 333.78 203.971 332.254 202.985C331.123 202.255 331.107 202.131 332.092 201.549Z" fill="#ED5738"/>
<path d="M289.489 169.321C290.302 169.077 291.159 169.538 291.403 170.35C291.647 171.162 291.186 172.018 290.373 172.262C285.674 173.671 284.842 175.732 287.341 179.56C287.805 180.27 287.604 181.221 286.893 181.684C286.182 182.147 285.229 181.947 284.766 181.236C281.118 175.649 282.871 171.306 289.489 169.321Z" fill="#ED5738"/>
<path d="M317.937 215.789C317.088 215.773 316.413 215.073 316.428 214.226C316.444 213.378 317.145 212.703 317.994 212.719C328.993 212.921 336.642 218.471 340.694 229.159C340.994 229.952 340.594 230.838 339.8 231.138C339.006 231.438 338.119 231.039 337.819 230.246C334.206 220.716 327.661 215.967 317.937 215.789Z" fill="#ED5738"/>
<path d="M299.523 218.849C299.258 218.043 299.696 217.176 300.503 216.91C301.309 216.645 302.178 217.083 302.443 217.888C306.811 231.139 314.26 238.883 324.851 241.325C335.406 243.758 345.581 239.565 355.513 228.545C356.081 227.915 357.053 227.864 357.684 228.431C358.315 228.998 358.366 229.969 357.798 230.599C347.174 242.387 335.915 247.027 324.159 244.316C312.439 241.614 304.207 233.056 299.523 218.849Z" fill="#ED5738"/>
<path d="M312.864 181.234L320.838 179.694L314.298 175.506C313.583 175.048 313.375 174.099 313.834 173.385C314.292 172.671 315.243 172.464 315.957 172.921L325.731 179.181C326.899 179.929 326.555 181.717 325.193 181.98L313.448 184.248C312.615 184.409 311.808 183.865 311.647 183.032C311.486 182.2 312.031 181.395 312.864 181.234Z" fill="#1C2229"/>
<ellipse cx="359.726" cy="188.529" rx="3.33014" ry="3.32623" transform="rotate(13 359.726 188.529)" fill="#1C2229"/>
<path fill-rule="evenodd" clip-rule="evenodd" d="M273.977 132.024L267.404 129.333C266.304 128.883 265.778 127.628 266.229 126.53C266.679 125.431 267.936 124.906 269.036 125.356L271.519 126.372L269.423 124.432C268.551 123.625 268.5 122.265 269.308 121.394C270.116 120.524 271.477 120.473 272.349 121.28L275.724 124.405C275.922 123.93 276.138 123.466 276.372 123.015C283.743 108.793 288.555 105.07 302.832 111.244C327.437 55.1122 365.146 61.7503 375.497 91.1045C390.015 72.9248 403.283 73.1181 413.065 79.5372L415.405 75.3989C415.989 74.3654 417.302 74.0006 418.336 74.5841C419.371 75.1677 419.737 76.4786 419.152 77.5122L416.518 82.1712C418.477 83.8833 420.254 85.8251 421.824 87.8666L433.248 79.9778C434.226 79.3028 435.566 79.547 436.242 80.5233C436.918 81.4996 436.673 82.8382 435.696 83.5132L424.28 91.3959C424.313 91.4487 424.346 91.5016 424.379 91.5545L432.805 88.7585C433.933 88.3842 435.151 88.9939 435.526 90.1202C435.901 91.2466 435.29 92.4631 434.162 92.8374L426.517 95.3744C427.649 97.647 428.504 99.8543 429.051 101.83C466.86 96.0505 482.365 126.934 436.301 145.61C439.58 167.277 412.421 173.769 402.698 168.095C402.125 187.025 386.231 197.265 377.914 197.532C379.773 194.568 383.015 185.644 384.342 179.902C381.442 169.292 379.251 166.228 380.303 153.61C371.872 159.208 356.328 160.68 342.007 162.904C335.633 163.895 314.717 161.468 308.336 152.436C306.14 161.933 306.088 171.848 299.417 185.282C294.008 187.058 296.501 169.637 293.217 166.354C289.352 162.49 284.256 167.037 281.687 167.993C280.251 164.364 272.76 146.295 273.977 132.024Z" fill="#253238"/>
<path d="M424.9 227.169C425.297 238.21 419.887 296.591 397.349 331.611C392.411 339.284 393.724 343.274 390.045 349.243C375.83 372.311 351.951 376.613 351.951 334.512C351.951 323.913 360.343 314.682 362.162 305.169C368.387 272.601 382.815 222.15 397.349 212.181C416.129 199.302 424.398 213.182 424.9 227.169Z" fill="#FFAA83"/>
<path d="M424.292 210.632C424.716 224.353 427.125 246.912 427.194 267.467C427.263 288.022 368.966 303.465 364.474 267.467C359.982 231.47 379.915 195.766 396.958 195.766C414.001 195.766 423.859 196.639 424.292 210.632Z" fill="#5296FB"/>
<path d="M424.046 270.361C402.617 288.087 382.115 288.427 363.094 271.297C362.464 270.73 362.414 269.759 362.982 269.129C363.551 268.5 364.523 268.45 365.153 269.017C383.002 285.092 401.795 284.78 422.085 267.997C422.739 267.456 423.708 267.547 424.25 268.2C424.791 268.853 424.7 269.821 424.046 270.361Z" fill="white"/>
<path d="M368.237 267.949C370.771 256.857 373.478 249.377 376.451 245.422C376.96 244.744 377.924 244.607 378.603 245.116C379.282 245.625 379.419 246.587 378.909 247.265C376.267 250.781 373.678 257.933 371.234 268.632C371.046 269.459 370.222 269.976 369.394 269.787C368.566 269.599 368.048 268.776 368.237 267.949Z" fill="#1D5EF8"/>
<path d="M363.086 305.893L363.086 299.591C363.086 298.743 363.774 298.056 364.623 298.056C365.472 298.056 366.16 298.743 366.16 299.591V305.893C366.16 306.74 365.472 307.428 364.623 307.428C363.774 307.428 363.086 306.74 363.086 305.893Z" fill="#ED5738"/>
<path d="M389.594 335.032C391.585 329.906 391.588 321.826 389.527 310.855C386.323 298.757 385.704 291.448 387.984 288.375C388.49 287.694 389.452 287.551 390.134 288.056C390.816 288.56 390.96 289.522 390.454 290.203C388.985 292.184 389.566 299.009 392.538 310.233C394.706 321.744 394.706 330.36 392.46 336.142C392.153 336.932 391.263 337.325 390.471 337.018C389.68 336.711 389.287 335.822 389.594 335.032Z" fill="#ED5738"/>
<path d="M332.163 291.328C329.716 288.315 330.519 287.15 329.536 283.419C329.198 282.135 330.742 280.1 330.542 278.741C330.392 277.731 328.84 276.271 328.855 275.247C328.882 273.425 330.191 271.629 330.542 269.763C330.849 268.124 328.577 266.797 329.536 264.135C330.496 261.474 333.167 261.184 334.141 259.779C334.915 258.662 330.909 257.015 334.141 253.788C337.372 250.561 346.974 249.351 351.763 251.61C350.299 260.757 358.461 261.276 363.053 258.53C364.212 257.836 363.844 252.214 365.623 252.214C367.119 252.214 371.018 252.214 373.092 253.788C385.292 263.051 389.203 269.664 387.736 288.585C387.004 298.028 360.647 299.699 351.763 297.848C346.643 296.781 335.703 295.685 332.163 291.328Z" fill="#FFAA83"/>
<path d="M353.937 242.229L366.466 244.888L362.38 264.668L349.851 262.008L353.937 242.229Z" fill="#1E5B89"/>
<ellipse cx="365.723" cy="205.775" rx="41.2453" ry="41.1914" fill="#4C91FC"/>
<ellipse cx="365.723" cy="206.287" rx="36.634" ry="36.5861" fill="white"/>
<path d="M400.481 194.696C397.463 208.863 388.402 227.249 376.598 241.234C373.163 242.3 369.51 242.873 365.723 242.873C345.491 242.873 329.089 226.493 329.089 206.287C329.089 186.081 345.491 169.701 365.723 169.701C381.899 169.701 395.626 180.172 400.481 194.696Z" fill="#FFAA83"/>
<ellipse cx="365.979" cy="201.426" rx="19.9822" ry="19.9561" fill="white"/>
<ellipse cx="366.492" cy="201.938" rx="10.2473" ry="10.2339" fill="#22537F"/>
<ellipse cx="366.492" cy="201.938" rx="5.12363" ry="5.11694" fill="#1C2229"/>
<ellipse cx="373.409" cy="197.588" rx="4.86745" ry="4.86109" fill="white"/>
<path d="M496.43 433.852C496.43 433.852 483.328 398.533 458.06 398.533C432.792 398.533 444.973 361.463 418.769 361.463C401.71 361.463 401.71 382.096 377.279 369.281C352.09 356.069 378.215 333.278 330.487 328.902C282.758 324.526 293.722 369.281 274.07 369.281C259.915 369.281 259.004 346.733 246.93 344.902C234.856 343.071 233.204 358.029 224.157 356.154C213.135 353.869 217.294 334.896 190.42 334.896C163.546 334.896 172.685 371.547 166.134 375.571C159.583 379.596 151.16 366.156 142.114 382.096C133.067 398.036 148.739 405.538 135.563 405.538C111.481 405.538 108.986 433.852 108.986 433.852C108.986 433.852 110.759 442.52 142.114 443.551C173.468 444.583 174.879 435.72 213.784 437.3C252.688 438.88 259.282 437.3 315.154 437.3C371.026 437.3 361.107 449.87 403.763 446.052C446.418 442.233 479.105 450.129 503.587 448.552C523.702 447.256 496.43 433.852 496.43 433.852Z" fill="#BFEAFF"/>
<path fill-rule="evenodd" clip-rule="evenodd" d="M35.1724 303.305C37.6313 305.17 38.4268 308.285 36.949 310.261C35.4713 312.238 32.28 312.329 29.821 310.463C27.3621 308.598 15.5382 297.119 17.0159 295.142C18.4936 293.165 32.7134 301.44 35.1724 303.305ZM44.78 324.467C45.6805 322.132 44.1918 319.136 41.455 317.774C38.7181 316.413 23.4948 311.097 22.5943 313.432C21.6939 315.768 35.4572 324.87 38.1941 326.231C40.9309 327.592 43.8795 326.803 44.78 324.467ZM49.843 329.979C52.7256 330.674 54.9173 333.344 54.7382 335.943C54.5591 338.543 52.0772 340.086 49.1946 339.391C46.312 338.696 31.192 332.908 31.371 330.309C31.5501 327.71 46.9605 329.284 49.843 329.979ZM66.8933 346.902C66.5327 344.221 63.9181 341.907 61.0535 341.733C58.1888 341.56 43.3108 342.813 43.6714 345.494C44.032 348.174 59.4945 351.268 62.3592 351.441C65.2239 351.615 67.2538 349.583 66.8933 346.902ZM73.2606 353.584C76.0822 353.517 78.858 355.64 79.4607 358.325C80.0633 361.011 78.2646 363.241 75.443 363.308C72.6215 363.375 57.191 361.55 56.5884 358.865C55.9857 356.179 70.4391 353.65 73.2606 353.584ZM93.2506 367.696C92.2709 365.046 89.2814 363.262 86.5733 363.711C83.8653 364.16 70.3185 368.687 71.2982 371.337C72.2779 373.987 87.4131 373.757 90.1211 373.308C92.8292 372.859 94.2303 370.346 93.2506 367.696ZM99.3317 373.904C101.849 373.035 105.009 374.397 106.39 376.946C107.771 379.495 106.849 382.266 104.332 383.135C101.814 384.003 87.3628 386.538 85.9821 383.989C84.6014 381.44 96.8142 374.773 99.3317 373.904ZM114.258 382.692C116.775 381.824 119.935 383.186 121.316 385.735C122.697 388.284 121.775 391.054 119.258 391.923C116.74 392.792 102.289 395.326 100.908 392.777C99.5272 390.228 111.74 383.561 114.258 382.692ZM41.9725 305.882C44.1341 306.439 46.0324 305.234 46.2125 303.192C46.3926 301.149 45.5941 289.88 43.4325 289.323C41.2709 288.766 38.5648 299.133 38.3847 301.175C38.2046 303.218 39.8109 305.325 41.9725 305.882ZM54.367 316.998C54.4196 319.089 52.7046 320.504 50.5365 320.159C48.3684 319.813 46.5682 317.838 46.5156 315.746C46.463 313.655 47.9421 302.861 50.1102 303.206C52.2783 303.552 54.3144 314.906 54.367 316.998ZM59.9464 332.943C62.1151 333.324 63.862 331.943 63.8482 329.858C63.8345 327.774 62.0034 316.425 59.8348 316.044C57.6661 315.663 55.981 326.394 55.9948 328.478C56.0086 330.563 57.7778 332.562 59.9464 332.943ZM75.1068 342.495C75.353 344.609 73.8052 346.188 71.6498 346.022C69.4945 345.856 67.5476 344.007 67.3014 341.893C67.0553 339.778 67.4989 328.718 69.6543 328.884C71.8097 329.051 74.8606 340.381 75.1068 342.495ZM84.0666 355.852C86.2316 356.127 87.8812 354.644 87.751 352.542C87.6209 350.44 85.1765 339.085 83.0116 338.81C80.8466 338.536 79.7807 349.447 79.9109 351.55C80.041 353.652 81.9016 355.578 84.0666 355.852ZM99.0498 361.184C98.7924 363.205 96.8375 364.337 94.6834 363.711C92.5292 363.085 90.9916 360.938 91.2489 358.917C91.5063 356.895 94.6155 346.697 96.7696 347.323C98.9238 347.949 99.3071 359.162 99.0498 361.184ZM105.611 370.585C107.735 371.38 109.821 370.437 110.27 368.48C110.719 366.522 111.374 355.508 109.25 354.713C107.126 353.918 103.027 363.641 102.578 365.599C102.129 367.557 103.487 369.789 105.611 370.585ZM123.998 377.174C123.857 379.227 121.987 380.467 119.823 379.946C117.659 379.424 116.019 377.337 116.16 375.284C116.302 373.232 118.805 362.786 120.969 363.308C123.134 363.83 124.139 375.122 123.998 377.174Z" fill="#8FD8FC"/>
<path d="M145.419 394.067C88.3066 365.836 53.2195 336.128 40.0667 305.026C39.7758 304.338 38.9901 303.901 38.3117 304.05C37.6333 304.199 37.3192 304.878 37.6101 305.566C51.123 337.52 86.8072 367.733 144.572 396.287C145.272 396.633 146.029 396.416 146.263 395.803C146.497 395.19 146.119 394.413 145.419 394.067Z" fill="#465197"/>
<path fill-rule="evenodd" clip-rule="evenodd" d="M115.095 311.844C116.599 314.413 115.897 317.235 113.527 318.147C111.156 319.059 108.014 317.717 106.51 315.148C105.005 312.58 98.9582 298.237 101.329 297.325C103.7 296.413 113.59 309.275 115.095 311.844ZM118.782 333.774C120.473 332.031 119.994 328.948 117.712 326.888C115.429 324.828 101.971 315.33 100.28 317.073C98.5885 318.816 109.305 331.139 111.587 333.199C113.87 335.26 117.091 335.517 118.782 333.774ZM125.035 341.128C127.819 342.321 129.513 345.221 128.82 347.604C128.126 349.988 125.307 350.953 122.524 349.76C119.74 348.567 105.56 340.318 106.254 337.934C106.948 335.55 122.251 339.936 125.035 341.128ZM138.986 360.112C139.153 357.552 136.962 354.908 134.093 354.207C131.223 353.506 115.893 351.868 115.727 354.428C115.56 356.988 130.62 362.777 133.489 363.478C136.358 364.179 138.819 362.672 138.986 360.112ZM144.135 367.567C147.008 368.035 149.399 370.53 149.475 373.139C149.551 375.749 147.283 377.485 144.41 377.017C141.537 376.549 126.258 371.955 126.182 369.346C126.106 366.736 141.261 367.099 144.135 367.567ZM155.634 379.532C158.469 379.621 161.141 381.838 161.604 384.485C162.066 387.132 160.143 389.207 157.309 389.119C154.474 389.03 139.089 386.417 138.627 383.77C138.164 381.123 152.8 379.444 155.634 379.532ZM121.288 315.683C123.223 316.906 125.562 316.531 126.512 314.845C127.463 313.159 130.928 303.24 128.993 302.017C127.059 300.794 120.456 308.73 119.506 310.416C118.555 312.102 119.353 314.46 121.288 315.683ZM132.099 329.914C131.737 331.883 129.729 332.891 127.616 332.165C125.502 331.439 124.083 329.255 124.446 327.286C124.809 325.317 128.443 315.479 130.557 316.205C132.67 316.931 132.462 327.945 132.099 329.914ZM134.64 345.863C136.747 346.622 138.78 345.652 139.181 343.696C139.581 341.741 139.996 330.77 137.889 330.011C135.782 329.252 131.951 338.993 131.55 340.948C131.15 342.903 132.533 345.104 134.64 345.863ZM148.106 357.609C147.935 359.636 146.064 360.827 143.929 360.27C141.793 359.713 140.2 357.619 140.371 355.592C140.542 353.565 143.18 343.284 145.316 343.841C147.452 344.398 148.277 355.582 148.106 357.609ZM154.573 371.791C156.697 372.45 158.651 371.367 158.938 369.374C159.224 367.38 159.018 356.287 156.894 355.628C154.77 354.97 151.531 364.994 151.245 366.988C150.958 368.982 152.448 371.132 154.573 371.791ZM168.682 379.574C168.018 381.419 165.824 382.117 163.78 381.133C161.736 380.149 160.616 377.856 161.28 376.01C161.943 374.165 167.111 365.19 169.155 366.174C171.199 367.158 169.345 377.728 168.682 379.574Z" fill="#BFEAFF"/>
<path d="M188.555 400.04C150.288 375.474 127.504 347.555 120.082 316.229C119.917 315.534 119.204 314.978 118.49 314.988C117.775 314.997 117.33 315.569 117.495 316.265C125.113 348.42 148.46 377.028 187.413 402.035C188.075 402.46 188.867 402.358 189.183 401.807C189.498 401.256 189.217 400.465 188.555 400.04Z" fill="#465197"/>
<path d="M345.651 350.177C347.287 350.205 348.581 352.095 348.541 354.397C348.501 356.699 346.962 368.866 345.326 368.837C343.69 368.809 342.576 356.595 342.616 354.293C342.656 351.991 344.015 350.148 345.651 350.177Z" fill="white"/>
<path d="M333.37 361.063C334.742 360.17 336.869 361.012 338.12 362.943C339.372 364.874 344.887 375.823 343.515 376.716C342.142 377.609 334.402 368.107 333.151 366.176C331.899 364.245 331.997 361.956 333.37 361.063Z" fill="white"/>
<path d="M326.425 372.609C327.821 371.109 330.658 371.485 332.761 373.45C334.864 375.415 344.868 387.036 343.471 388.536C342.075 390.036 329.807 380.848 327.704 378.883C325.601 376.919 325.029 374.11 326.425 372.609Z" fill="white"/>
<path d="M322.451 385.143C323.888 383.3 327.148 383.445 329.732 385.467C332.316 387.49 344.834 399.696 343.397 401.539C341.959 403.383 327.11 394.166 324.526 392.144C321.943 390.121 321.013 386.987 322.451 385.143Z" fill="white"/>
<path d="M317.83 400.305C319.237 398.049 322.939 397.825 326.1 399.804C329.261 401.783 344.859 414.091 343.453 416.346C342.046 418.601 324.168 409.95 321.007 407.971C317.846 405.992 316.424 402.56 317.83 400.305Z" fill="white"/>
<path d="M312.643 417.399C313.703 414.632 317.706 413.598 321.584 415.089C325.463 416.581 345.14 426.723 344.08 429.49C343.02 432.257 321.624 426.601 317.746 425.109C313.867 423.618 311.583 420.166 312.643 417.399Z" fill="white"/>
<ellipse cx="352.888" cy="368.741" rx="5.72998" ry="8.0342" fill="white"/>
<ellipse cx="356.257" cy="380.196" rx="8.97144" ry="8.50515" fill="white"/>
<ellipse cx="358.247" cy="392.816" rx="10.8684" ry="8.96585" fill="white"/>
<ellipse cx="360.475" cy="407.587" rx="13.1273" ry="9.13167" fill="white"/>
<ellipse cx="362.638" cy="422.324" rx="15.8689" ry="7.91712" fill="white"/>
<path d="M345.08 373.369C345.08 373.086 345.309 372.857 345.591 372.857C345.873 372.857 346.102 373.086 346.102 373.369V441.219C346.102 441.502 345.873 441.732 345.591 441.732C345.309 441.732 345.08 441.502 345.08 441.219V373.369Z" fill="white"/>
<path d="M403.679 380.751C404.754 381.208 405.106 382.805 404.465 384.317C403.824 385.829 399.56 393.467 398.486 393.01C397.411 392.553 399.932 384.174 400.573 382.662C401.214 381.149 402.604 380.294 403.679 380.751Z" fill="white"/>
<path d="M392.65 384.664C393.796 384.441 394.979 385.567 395.291 387.18C395.604 388.792 396.332 397.513 395.186 397.737C394.04 397.96 391.454 389.601 391.141 387.988C390.828 386.375 391.504 384.887 392.65 384.664Z" fill="white"/>
<path d="M384.975 390.443C386.299 389.825 388.075 390.833 388.942 392.696C389.809 394.559 393.328 404.927 392.004 405.545C390.679 406.164 385.014 396.8 384.147 394.937C383.28 393.074 383.651 391.062 384.975 390.443Z" fill="white"/>
<path d="M379.002 397.672C380.445 396.837 382.563 397.806 383.733 399.836C384.902 401.866 389.928 413.294 388.485 414.129C387.042 414.963 379.677 404.889 378.508 402.859C377.338 400.829 377.559 398.506 379.002 397.672Z" fill="white"/>
<path d="M371.9 406.464C373.432 405.349 375.942 406.192 377.505 408.348C379.068 410.504 386.104 422.824 384.572 423.939C383.04 425.054 373.52 414.542 371.957 412.387C370.393 410.231 370.368 407.579 371.9 406.464Z" fill="white"/>
<path d="M363.908 416.383C365.348 414.837 368.272 415.225 370.44 417.25C372.608 419.275 382.92 431.255 381.481 432.802C380.041 434.348 367.395 424.876 365.227 422.851C363.059 420.826 362.469 417.93 363.908 416.383Z" fill="white"/>
<path d="M408.628 391.132C409.297 392.09 408.751 393.631 407.408 394.573C406.065 395.516 398.41 399.729 397.74 398.771C397.07 397.812 403.64 392.045 404.983 391.103C406.326 390.161 407.958 390.174 408.628 391.132Z" fill="white"/>
<path d="M410.142 400.631C410.665 401.998 409.537 403.703 407.622 404.439C405.706 405.176 395.139 407.969 394.615 406.603C394.092 405.236 403.81 400.227 405.726 399.49C407.641 398.754 409.618 399.264 410.142 400.631Z" fill="white"/>
<path d="M409.427 409.987C409.886 411.592 408.435 413.417 406.186 414.063C403.937 414.709 391.655 416.83 391.195 415.225C390.736 413.621 402.274 408.898 404.523 408.252C406.772 407.606 408.968 408.383 409.427 409.987Z" fill="white"/>
<path d="M408.439 421.256C408.768 423.124 406.911 425.014 404.292 425.477C401.673 425.94 387.537 426.875 387.208 425.006C386.879 423.138 400.482 419.173 403.101 418.71C405.721 418.247 408.11 419.387 408.439 421.256Z" fill="white"/>
<path d="M407.311 433.953C407.274 436.067 404.842 437.74 401.878 437.688C398.914 437.636 383.25 435.647 383.287 433.533C383.324 431.418 399.048 429.979 402.011 430.031C404.975 430.082 407.348 431.839 407.311 433.953Z" fill="white"/>
<path d="M397.012 395.9C397.118 395.638 397.416 395.512 397.677 395.618C397.939 395.723 398.066 396.022 397.96 396.284L379.859 441.173C379.753 441.435 379.455 441.562 379.193 441.456C378.932 441.35 378.805 441.051 378.911 440.789L397.012 395.9Z" fill="white"/>
<path d="M403.673 444.103C403.673 444.103 396.35 432.435 370.253 432.435C344.155 432.435 348.812 418.324 321.748 418.324C294.683 418.324 310.945 364.994 245.142 362.172C179.338 359.351 194.235 393.214 173.937 393.214C153.639 393.214 142.725 376.621 117.876 377.793C93.0266 378.965 83.0029 416.218 73.015 418.324C63.027 420.43 70.4374 410.952 43.0511 410.952C15.6647 410.952 4.38799 432.435 4.38799 432.435C4.38799 432.435 -11.3233 444.103 37.0055 444.103C48.8672 444.103 81.5372 440.313 117.876 439.259C138.383 438.664 175.823 450 222.911 450C245.142 450 264.192 444.936 307.647 444.103C351.102 443.27 403.673 444.103 403.673 444.103Z" fill="#8FD8FC"/>
</svg>
