<svg width="665" height="450" viewBox="0 0 665 450" fill="none" xmlns="http://www.w3.org/2000/svg">
<path d="M148.577 33.2118C150.815 28.2957 151.934 24.4026 151.934 21.5325C151.934 9.64045 142.525 0 130.918 0C119.311 0 109.902 9.64045 109.902 21.5325C109.902 21.4374 109.903 21.3433 109.906 21.2504C109.667 30.2516 106.573 38.9445 101.071 46.0758C94.6471 54.4006 91.4353 62.062 91.4353 69.0598C91.4353 72.0328 92.0554 75.3605 93.2957 79.043C97.2523 90.7908 95.8793 103.679 89.5363 114.332C84.3058 123.116 81.6906 130.988 81.6906 137.949C81.6906 142.277 82.7477 147.276 84.862 152.945C89.2871 164.809 88.1877 178.027 81.8632 189C75.6036 199.859 72.4738 209.411 72.4738 217.655C72.4738 250.727 98.6401 277.537 130.918 277.537C163.196 277.537 189.362 250.727 189.362 217.655C189.362 209.411 186.232 199.859 179.973 189C173.648 178.027 172.549 164.809 176.974 152.945C179.088 147.276 180.145 142.277 180.145 137.949C180.145 130.913 177.476 122.962 172.138 114.098C165.745 103.482 164.306 90.6078 168.198 78.8444C169.391 75.2362 169.988 71.9747 169.988 69.0598C169.988 58.6375 162.851 46.6882 148.577 33.2118Z" fill="#BFEAFF"/>
<path d="M130.749 181.017V150.823L151.97 123.131C152.177 122.861 152.126 122.474 151.855 122.267C151.585 122.06 151.198 122.112 150.991 122.382L129.643 150.24C129.561 150.347 129.516 150.479 129.516 150.614V179.408L109.555 153.36C109.348 153.09 108.961 153.039 108.691 153.246C108.421 153.452 108.369 153.839 108.576 154.109L129.516 181.435V184.278C129.516 184.494 129.628 184.685 129.797 184.794L129.797 211.56L129.643 211.761C129.561 211.868 129.516 212 129.516 212.135V234.619L109.555 208.571C109.348 208.301 108.961 208.25 108.691 208.457C108.421 208.664 108.369 209.05 108.576 209.32L129.516 236.646V245.799C129.516 246.015 129.628 246.206 129.797 246.316V262.457C129.736 262.554 129.704 262.667 129.704 262.783L129.704 312.344C129.704 312.684 129.98 312.96 130.32 312.96C130.661 312.96 130.937 312.684 130.937 312.344L130.937 270.793C130.996 270.699 131.03 270.587 131.03 270.467V262.938L153.212 240.211C153.449 239.968 153.444 239.578 153.201 239.34C152.957 239.103 152.566 239.108 152.329 239.351L131.03 261.174V236.804C131.03 236.668 130.986 236.537 130.903 236.429L130.749 236.228V215.773C130.918 215.663 131.03 215.473 131.03 215.256V211.978L151.97 184.652C152.177 184.382 152.126 183.995 151.855 183.788C151.585 183.582 151.198 183.633 150.991 183.903L131.03 209.951L131.03 181.593C131.03 181.457 130.986 181.326 130.903 181.218L130.749 181.017Z" fill="#0070AD"/>
<path d="M563.496 33.2499C565.734 28.3337 566.853 24.4406 566.853 21.5706C566.853 9.67854 557.443 0.0380859 545.837 0.0380859C534.23 0.0380859 524.821 9.67854 524.821 21.5706C524.821 21.4754 524.822 21.3814 524.825 21.2885C524.586 30.2897 521.492 38.9826 515.989 46.1138C509.566 54.4387 506.354 62.1001 506.354 69.0979C506.354 72.0709 506.974 75.3986 508.215 79.0811C512.171 90.8289 510.798 103.717 504.455 114.37C499.225 123.154 496.609 131.026 496.609 137.987C496.609 142.315 497.667 147.314 499.781 152.983C504.206 164.847 503.107 178.066 496.782 189.038C490.522 199.898 487.393 209.449 487.393 217.694C487.393 250.765 513.559 277.575 545.837 277.575C578.115 277.575 604.281 250.765 604.281 217.694C604.281 209.449 601.151 199.898 594.892 189.038C588.567 178.066 587.468 164.847 591.893 152.983C594.007 147.314 595.064 142.315 595.064 137.987C595.064 130.951 592.395 123 587.057 114.136C580.664 103.52 579.225 90.6459 583.116 78.8825C584.31 75.2743 584.907 72.0128 584.907 69.0979C584.907 58.6756 577.77 46.7262 563.496 33.2499Z" fill="#8FD8FC"/>
<path d="M545.668 181.055V150.861L566.889 123.169C567.096 122.899 567.044 122.512 566.774 122.305C566.504 122.098 566.117 122.15 565.91 122.42L544.562 150.278C544.479 150.385 544.435 150.517 544.435 150.652V179.446L524.474 153.398C524.267 153.128 523.88 153.077 523.61 153.284C523.339 153.49 523.288 153.877 523.495 154.147L544.435 181.473V184.316C544.435 184.532 544.547 184.723 544.716 184.833V211.598L544.562 211.799C544.479 211.907 544.435 212.038 544.435 212.174V234.657L524.474 208.61C524.267 208.339 523.88 208.288 523.61 208.495C523.339 208.702 523.288 209.088 523.495 209.359L544.435 236.684V245.837C544.435 246.054 544.547 246.244 544.716 246.354V262.495C544.655 262.593 544.622 262.705 544.622 262.822V312.382C544.622 312.723 544.898 312.998 545.239 312.998C545.58 312.998 545.856 312.723 545.856 312.382V270.832C545.915 270.737 545.949 270.625 545.949 270.505V262.976L568.13 240.25C568.368 240.006 568.363 239.616 568.119 239.378C567.876 239.141 567.485 239.146 567.248 239.389L545.949 261.212V236.842C545.949 236.707 545.904 236.575 545.822 236.467L545.668 236.267V215.811C545.837 215.701 545.949 215.511 545.949 215.294V212.016L566.889 184.69C567.096 184.42 567.044 184.033 566.774 183.827C566.504 183.62 566.117 183.671 565.91 183.941L545.949 209.989V181.631C545.949 181.495 545.904 181.364 545.822 181.256L545.668 181.055Z" fill="#0070AD"/>
<ellipse rx="54.6971" ry="125.451" transform="matrix(-1 0 0 1 467.318 164.229)" fill="#BFEAFF"/>
<path d="M467.149 216.18V192.296L488.369 164.603C488.576 164.333 488.525 163.947 488.255 163.74C487.984 163.533 487.597 163.584 487.39 163.854L466.043 191.712C465.96 191.82 465.916 191.951 465.916 192.087V214.57L445.955 188.523C445.748 188.253 445.361 188.201 445.091 188.408C444.82 188.615 444.769 189.002 444.976 189.272L465.916 216.597V225.75C465.916 225.967 466.027 226.157 466.197 226.267V243.25L445.955 216.836C445.748 216.566 445.361 216.514 445.091 216.721C444.82 216.928 444.769 217.315 444.976 217.585L466.197 245.277V270.722C466.136 270.819 466.103 270.932 466.103 271.048L466.103 320.609C466.103 320.949 466.379 321.225 466.72 321.225C467.06 321.225 467.336 320.949 467.336 320.609L467.336 279.058C467.395 278.963 467.43 278.851 467.43 278.732V271.203L489.611 248.476C489.849 248.232 489.844 247.842 489.6 247.605C489.356 247.367 488.966 247.372 488.728 247.616L467.43 269.438V216.755C467.43 216.62 467.385 216.488 467.303 216.381L467.149 216.18Z" fill="#0070AD"/>
<path d="M458.016 337.269C462.619 324.895 469.36 318.709 478.237 318.709C491.553 318.709 485.134 299.228 498.943 299.228C507.933 299.228 507.933 310.071 520.808 303.336C534.083 296.393 520.808 276.726 545.961 274.426C571.114 272.127 564.842 303.336 575.199 303.336C582.659 303.336 583.139 291.487 589.502 290.525C595.865 289.563 596.735 297.423 601.503 296.438C607.312 295.237 605.12 285.267 619.282 285.267C633.445 285.267 628.629 304.527 632.081 306.642C635.533 308.757 639.972 301.694 644.739 310.071C649.507 318.447 641.248 322.389 648.192 322.389C656.652 322.389 661.321 327.349 662.198 337.269C661.575 340.305 655.755 342.004 644.739 342.366C628.216 342.908 627.472 338.25 606.97 339.081C586.467 339.911 579.697 350.907 550.253 350.907C520.808 350.907 529.331 345.686 506.852 343.68C484.372 341.673 467.146 345.823 454.244 344.994C447.177 344.54 448.435 341.965 458.016 337.269Z" fill="#BFEAFF"/>
<path d="M401.152 355.885C403.725 350.928 409.596 348.449 418.765 348.449C432.518 348.449 430.064 339.454 444.327 339.454C458.589 339.454 450.019 305.461 484.698 303.663C519.376 301.864 511.525 323.449 522.222 323.449C532.919 323.449 538.671 312.872 551.766 313.619C564.862 314.366 570.144 338.111 575.408 339.454C580.671 340.796 576.766 334.755 591.199 334.755C600.82 334.755 607.612 339.32 611.574 348.449C617.094 353.406 611.364 355.885 594.385 355.885C588.133 355.885 570.917 353.47 551.766 352.798C540.959 352.419 521.228 359.644 496.413 359.644C484.698 359.644 474.658 356.417 451.757 355.885C436.491 355.531 419.622 355.531 401.152 355.885Z" fill="#8FD8FC"/>
<path d="M17.1333 337.269C21.7364 324.895 28.4767 318.709 37.3542 318.709C50.6704 318.709 44.2511 299.228 58.0605 299.228C67.0502 299.228 67.0502 310.071 79.9253 303.336C93.2001 296.393 79.9253 276.726 105.078 274.426C130.231 272.127 123.959 303.336 134.316 303.336C141.776 303.336 142.256 291.487 148.619 290.525C154.982 289.563 155.852 297.423 160.62 296.438C166.429 295.237 164.237 285.267 178.399 285.267C192.562 285.267 187.746 304.527 191.198 306.642C194.65 308.757 199.089 301.694 203.857 310.071C208.624 318.447 200.365 322.389 207.309 322.389C215.769 322.389 220.438 327.349 221.315 337.269C220.692 340.305 214.872 342.004 203.857 342.366C187.333 342.908 186.589 338.25 166.087 339.081C145.584 339.911 138.814 350.907 109.37 350.907C79.9253 350.907 88.4481 345.686 65.9687 343.68C43.4892 341.673 26.2635 345.823 13.3615 344.994C6.29455 344.54 7.55182 341.965 17.1333 337.269Z" fill="#BFEAFF"/>
<path fill-rule="evenodd" clip-rule="evenodd" d="M82.6479 440.672L103.54 437.973C103.592 437.966 103.645 437.966 103.698 437.973L124.59 440.672C124.897 440.712 125.128 440.974 125.128 441.285V446.683C125.128 446.994 124.897 447.256 124.59 447.296L103.698 449.995C103.645 450.002 103.592 450.002 103.54 449.995L82.6479 447.296C82.3405 447.256 82.1103 446.994 82.1103 446.683V441.285C82.1103 440.974 82.3405 440.712 82.6479 440.672ZM123.895 441.827L103.619 439.207L83.3433 441.827V446.14L103.619 448.76L123.895 446.14V441.827Z" fill="#BFEAFF"/>
<path fill-rule="evenodd" clip-rule="evenodd" d="M541.087 440.672L561.979 437.973C562.032 437.966 562.085 437.966 562.137 437.973L583.029 440.672C583.337 440.712 583.567 440.974 583.567 441.285V446.683C583.567 446.994 583.337 447.256 583.029 447.296L562.137 449.995C562.085 450.002 562.032 450.002 561.979 449.995L541.087 447.296C540.78 447.256 540.55 446.994 540.55 446.683V441.285C540.55 440.974 540.78 440.712 541.087 440.672ZM582.334 446.14V441.827L562.058 439.207L541.783 441.827V446.14L562.058 448.76L582.334 446.14Z" fill="#BFEAFF"/>
<path fill-rule="evenodd" clip-rule="evenodd" d="M60.45 429.875L81.3422 427.175C81.3945 427.169 81.4476 427.169 81.4999 427.175L102.392 429.875C102.7 429.915 102.93 430.177 102.93 430.487V435.886C102.93 436.196 102.7 436.459 102.392 436.498L81.4999 439.198C81.4476 439.204 81.3945 439.204 81.3422 439.198L60.45 436.498C60.1426 436.459 59.9124 436.196 59.9124 435.886V430.487C59.9124 430.177 60.1426 429.915 60.45 429.875ZM101.697 435.343V431.03L81.421 428.41L61.1454 431.03V435.343L81.421 437.963L101.697 435.343Z" fill="#BFEAFF"/>
<path fill-rule="evenodd" clip-rule="evenodd" d="M311.596 397.515L332.488 394.816C332.541 394.809 332.594 394.809 332.646 394.816L353.538 397.515C353.846 397.555 354.076 397.817 354.076 398.127V403.526C354.076 403.837 353.846 404.099 353.538 404.138L332.646 406.838C332.594 406.845 332.541 406.845 332.488 406.838L311.596 404.138C311.289 404.099 311.059 403.837 311.059 403.526V398.127C311.059 397.817 311.289 397.555 311.596 397.515ZM352.843 402.983V398.67L332.567 396.05L312.292 398.67V402.983L332.567 405.603L352.843 402.983Z" fill="#BFEAFF"/>
<path fill-rule="evenodd" clip-rule="evenodd" d="M38.1201 440.672L59.0122 437.973C59.0646 437.966 59.1176 437.966 59.17 437.973L80.0621 440.672C80.3696 440.712 80.5997 440.974 80.5997 441.285V446.683C80.5997 446.994 80.3696 447.256 80.0621 447.296L59.17 449.995C59.1176 450.002 59.0646 450.002 59.0122 449.995L38.1201 447.296C37.8126 447.256 37.5824 446.994 37.5824 446.683V441.285C37.5824 440.974 37.8126 440.712 38.1201 440.672ZM79.3667 446.14V441.827L59.0911 439.207L38.8155 441.827V446.14L59.0911 448.76L79.3667 446.14Z" fill="#BFEAFF"/>
<path fill-rule="evenodd" clip-rule="evenodd" d="M289.266 408.313L310.158 405.613C310.211 405.607 310.264 405.607 310.316 405.613L331.208 408.313C331.516 408.353 331.746 408.615 331.746 408.925V414.324C331.746 414.634 331.516 414.896 331.208 414.936L310.316 417.636C310.264 417.642 310.211 417.642 310.158 417.636L289.266 414.936C288.959 414.896 288.729 414.634 288.729 414.324V408.925C288.729 408.615 288.959 408.353 289.266 408.313ZM330.513 413.781V409.468L310.237 406.848L289.962 409.468V413.781L310.237 416.401L330.513 413.781Z" fill="#BFEAFF"/>
<ellipse cx="303.324" cy="424.428" rx="154.124" ry="8.62074" fill="#BFEAFF"/>
<path d="M7.86348 375.772C7.52278 375.772 7.24658 375.505 7.24658 375.176C7.24658 374.847 7.52278 374.58 7.86348 374.58L656.649 374.58C656.989 374.58 657.266 374.847 657.266 375.176C657.266 375.505 656.989 375.772 656.649 375.772L7.86348 375.772Z" fill="#0070AD"/>
<path d="M0.616897 387.698C0.276194 387.698 0 387.432 0 387.102C0 386.773 0.276194 386.506 0.616897 386.506L663.895 386.506C664.236 386.506 664.512 386.773 664.512 387.102C664.512 387.432 664.236 387.698 663.895 387.698L0.616897 387.698Z" fill="#0070AD"/>
<path d="M304.868 263.712C311.503 258.3 321.255 250.465 323.943 264.105C326.63 277.745 299.892 330.053 300.801 347.947C300.285 354.029 289.511 355.604 288.579 347.411C290.194 338.108 298.86 309.008 296.787 295.779C293.719 276.202 301.119 266.77 304.868 263.712Z" fill="#FFC0BF"/>
<path d="M327.267 262.458C327.267 274.524 319.169 308.257 310.641 325.328C308.794 329.026 305.847 325.661 305.715 326.561C305.43 328.489 305.715 327.486 304.791 332.417C303.867 337.348 292.791 339.069 291.859 330.876C292.279 328.46 293.015 326.02 293.707 323.171C293.955 322.147 290.32 321.938 290.32 318.856C290.32 311.195 295.048 303.685 293.707 295.126C291.759 282.698 297.11 275.012 299.988 269.796C280.13 269.316 250.522 266.31 237.837 256.156C223.209 244.447 233.007 230.504 251.735 230.292C270.464 230.079 300.083 235.024 314.336 246.433C321.588 252.238 327.267 257.08 327.267 262.458Z" fill="#1D5EF8"/>
<path d="M255.099 257.823C254.765 257.757 254.549 257.432 254.616 257.098C254.682 256.764 255.007 256.548 255.34 256.615C278.886 261.328 292.741 263.691 296.786 263.691C300.566 263.691 303.592 264.555 305.223 266.491C307.268 268.919 306.883 272.699 303.779 277.876C301.768 281.233 300.381 285.688 299.467 291.15C299.041 293.696 298.729 296.381 298.48 299.397C298.384 300.56 298.301 301.728 298.211 303.128C298.181 303.6 298.043 305.819 298.006 306.381C297.816 309.272 297.659 310.627 297.357 311.381C296.069 314.604 294.999 321.14 295.53 323.002C295.624 323.329 295.434 323.67 295.107 323.764C294.78 323.857 294.439 323.668 294.346 323.34C293.723 321.157 294.834 314.377 296.214 310.923C296.444 310.347 296.599 309.013 296.777 306.3C296.814 305.74 296.952 303.523 296.982 303.049C297.073 301.642 297.156 300.467 297.253 299.296C297.504 296.248 297.82 293.53 298.252 290.946C299.189 285.345 300.619 280.753 302.723 277.242C305.586 272.466 305.916 269.226 304.282 267.286C302.943 265.696 300.237 264.924 296.786 264.924C292.619 264.924 278.764 262.561 255.099 257.823Z" fill="#5296FC"/>
<path d="M293.207 327.187C292.861 326.91 292.805 326.406 293.082 326.061C293.358 325.715 293.862 325.659 294.207 325.935C298.126 329.074 301.274 330.22 303.632 329.493C304.054 329.363 304.502 329.601 304.632 330.024C304.762 330.447 304.525 330.895 304.103 331.025C301.124 331.943 297.498 330.623 293.207 327.187Z" fill="#C3CBFF"/>
<path d="M292.552 330.851C292.225 330.553 292.201 330.047 292.499 329.719C292.796 329.392 293.303 329.368 293.63 329.666C297.043 332.776 299.758 333.901 301.755 333.201C302.173 333.055 302.629 333.275 302.775 333.692C302.921 334.11 302.702 334.567 302.284 334.713C299.592 335.657 296.354 334.316 292.552 330.851Z" fill="#C3CBFF"/>
<path d="M292.156 355.517C287.222 354.7 285.968 348.988 289.58 342.385C290.493 340.716 292.959 344.51 295.808 344.399C297.561 344.33 300.202 340.672 302.322 340.991C310.398 342.207 319.208 344.986 322.906 346.492C329.152 349.037 329.723 350.834 326.239 353.602C322.755 356.371 297.09 356.334 292.156 355.517Z" fill="#253238"/>
<path d="M305.39 344.898C305.183 345.289 304.698 345.437 304.308 345.229C303.917 345.022 303.769 344.537 303.977 344.146L306.268 339.831C306.476 339.44 306.961 339.292 307.351 339.5C307.741 339.707 307.89 340.193 307.682 340.583L305.39 344.898Z" fill="#6F787C"/>
<path d="M308.585 346.045C308.377 346.436 307.893 346.584 307.502 346.376C307.112 346.169 306.964 345.684 307.171 345.293L309.463 340.978C309.67 340.587 310.155 340.439 310.546 340.647C310.936 340.854 311.084 341.34 310.877 341.73L308.585 346.045Z" fill="#6F787C"/>
<path d="M311.755 347.236C311.547 347.627 311.063 347.776 310.672 347.568C310.282 347.36 310.134 346.875 310.341 346.484L312.633 342.169C312.84 341.779 313.325 341.63 313.715 341.838C314.106 342.046 314.254 342.531 314.047 342.922L311.755 347.236Z" fill="#6F787C"/>
<path d="M288.342 351.174C288.022 350.869 288.009 350.362 288.314 350.041C288.618 349.72 289.125 349.708 289.445 350.013C291.387 351.861 293.204 352.786 294.894 352.834C299.735 352.97 317.55 352.76 320.501 352.374C322.421 352.124 323.952 351.737 324.924 351.232C325.836 350.759 326.105 350.313 325.909 349.749C325.764 349.331 325.985 348.874 326.403 348.729C326.82 348.584 327.277 348.805 327.421 349.223C327.921 350.665 327.204 351.854 325.661 352.655C324.49 353.263 322.797 353.691 320.708 353.964C317.646 354.363 299.773 354.575 294.849 354.436C292.713 354.375 290.546 353.273 288.342 351.174Z" fill="#6F787C"/>
<path fill-rule="evenodd" clip-rule="evenodd" d="M246.599 263.478L248.604 275.81L244.602 277.042L241.594 264.248C234.628 264.676 227.382 262.712 223.641 260.216C218.099 256.518 209.786 259.908 208.247 257.442C193.417 233.693 261.205 242.098 263.976 248.813C266.747 255.528 259.665 257.069 251.044 261.757C249.664 262.507 248.165 263.073 246.599 263.478Z" fill="#EC961F"/>
<path fill-rule="evenodd" clip-rule="evenodd" d="M365.09 234.944L416.154 234.944C419.555 234.944 422.312 237.704 422.312 241.108C422.312 241.771 422.205 242.429 421.996 243.057L413.421 268.806C412.61 271.24 410.379 272.917 407.817 273.016L374.325 274.316C373.174 274.36 372.145 273.6 371.849 272.485L362.709 238.043C362.36 236.727 363.143 235.377 364.457 235.027C364.664 234.972 364.876 234.944 365.09 234.944Z" fill="#EC961F"/>
<path fill-rule="evenodd" clip-rule="evenodd" d="M382.824 285.487C386.826 281.789 392.868 278.671 396.371 280.864C399.874 283.057 400.782 289.225 397.911 291.959C395.039 294.693 388.058 292.267 383.747 292.883C379.437 293.5 378.821 289.185 382.824 285.487Z" fill="#F6BC57"/>
<path fill-rule="evenodd" clip-rule="evenodd" d="M379.021 305.021L377.39 301.702C383.206 298.838 385.566 295.717 385.003 292.256L388.65 291.662C389.524 297.036 386.136 301.516 379.021 305.021Z" fill="#EC961F"/>
<path d="M275.9 343.517V338.586C296.853 338.586 317.377 327.578 333.121 308.917C346.576 292.97 355.229 272.889 357.059 253.374C357.3 250.806 362.232 250.826 362.003 253.401C360.164 274.083 351.073 295.282 336.885 312.098C320.262 331.801 298.418 343.517 275.9 343.517Z" fill="#2D9CDB"/>
<path fill-rule="evenodd" clip-rule="evenodd" d="M356.017 368.161C356.017 398.285 380.415 422.706 410.511 422.706C440.607 422.706 465.004 398.285 465.004 368.161C465.004 338.037 440.607 313.616 410.511 313.616C380.415 313.616 356.017 338.037 356.017 368.161ZM455.767 368.161C455.767 393.179 435.505 413.46 410.511 413.46C385.516 413.46 365.254 393.179 365.254 368.161C365.254 343.143 385.516 322.862 410.511 322.862C435.505 322.862 455.767 343.143 455.767 368.161Z" fill="#253238"/>
<path fill-rule="evenodd" clip-rule="evenodd" d="M155.941 368.161C155.941 398.285 180.338 422.706 210.434 422.706C240.53 422.706 264.927 398.285 264.927 368.161C264.927 338.037 240.53 313.616 210.434 313.616C180.338 313.616 155.941 338.037 155.941 368.161ZM255.69 368.161C255.69 393.179 235.428 413.46 210.434 413.46C185.44 413.46 165.178 393.179 165.178 368.161C165.178 343.143 185.44 322.862 210.434 322.862C235.428 322.862 255.69 343.143 255.69 368.161Z" fill="#253238"/>
<path d="M270.267 368.161H261.646C261.646 339.364 238.324 316.02 209.555 316.02C185.451 316.02 164.656 332.545 158.972 355.647L150.601 353.583C157.229 326.648 181.461 307.391 209.555 307.391C243.085 307.391 270.267 334.599 270.267 368.161Z" fill="#2D9CDB"/>
<path fill-rule="evenodd" clip-rule="evenodd" d="M328.2 318.664L331.923 322.391L290.735 359.708C290.489 359.563 290.23 359.438 289.959 359.336L250.082 277.124L251.262 276.623L250.059 273.786L242.124 277.158L243.327 279.995L244.141 279.649L208.271 362.363C207.602 362.552 207 362.898 206.505 363.359L161.754 334.488L160.644 338.009L205.139 366.747C205.259 369.022 207.14 370.831 209.444 370.831C210.512 370.831 211.489 370.442 212.242 369.799L287.221 369.05C287.528 369.108 287.845 369.139 288.17 369.139C288.529 369.139 288.88 369.101 289.218 369.03L291.675 369.005V367.727C292.316 367.11 292.795 366.327 293.041 365.446L293.226 365.615L371.246 295.059C376.314 309.609 381.302 323.574 386.211 336.954C395.956 358.023 408.379 369.313 410.226 367.773C410.949 367.169 409.786 365.545 407.493 362.344C403.927 357.365 397.629 348.571 391.445 333.872C380.901 307.827 371.245 279.897 362.477 250.083L363.42 249.683L362.217 246.846L354.281 250.217L355.484 253.054L356.756 252.514C360.906 264.961 365.006 277.039 369.055 288.746L335.122 319.492L331.248 315.613L328.2 318.664ZM283.11 364.074C283.11 364.57 283.181 365.049 283.314 365.502L213.746 366.247C213.686 365.266 213.298 364.373 212.69 363.677L246.94 284.837L284.078 361.095C283.469 361.931 283.11 362.961 283.11 364.074Z" fill="#2D9CDB"/>
<ellipse cx="410.511" cy="368.161" rx="4.61844" ry="4.6228" fill="#2D9CDB"/>
<path d="M215.486 370.859L251.787 371.419C251.806 371.419 251.825 371.42 251.844 371.42C253.9 371.42 255.567 369.751 255.567 367.693C255.567 367.684 255.567 367.674 255.567 367.664C255.551 365.591 253.858 363.922 251.786 363.938L216.279 364.212C218.042 360.08 222.074 357.139 226.835 356.983L292.806 354.81C301.422 354.527 308.637 361.288 308.92 369.912C308.926 370.083 308.929 370.255 308.929 370.426C308.929 378.776 302.166 385.545 293.824 385.545C293.493 385.545 293.162 385.534 292.832 385.512L226.816 381.165C221.022 380.783 216.384 376.427 215.486 370.859Z" fill="#2D9CDB"/>
<path fill-rule="evenodd" clip-rule="evenodd" d="M283.554 370.173C283.554 376.009 288.281 380.74 294.111 380.74C299.941 380.74 304.668 376.009 304.668 370.173C304.668 364.337 299.941 359.606 294.111 359.606C288.281 359.606 283.554 364.337 283.554 370.173ZM303.436 370.173C303.436 375.328 299.261 379.507 294.111 379.507C288.961 379.507 284.786 375.328 284.786 370.173C284.786 365.018 288.961 360.839 294.111 360.839C299.261 360.839 303.436 365.018 303.436 370.173Z" fill="white"/>
<path d="M293.842 370.546C295.032 370.546 295.997 371.512 295.997 372.704V394.893C295.997 396.085 295.032 397.05 293.842 397.05C292.651 397.05 291.687 396.085 291.687 394.893V372.704C291.687 371.512 292.651 370.546 293.842 370.546Z" fill="#253238"/>
<path d="M286.76 394.585H300.308V400.132H286.76V394.585Z" fill="#2D9CDB"/>
<path d="M447.358 319.913L442.111 326.761C433.087 319.833 422.059 316.02 410.44 316.02C381.671 316.02 358.349 339.364 358.349 368.161C358.349 373.926 359.282 379.558 361.09 384.901L352.925 387.67C350.816 381.438 349.728 374.87 349.728 368.161C349.728 334.599 376.91 307.391 410.44 307.391C423.973 307.391 436.841 311.84 447.358 319.913Z" fill="#2D9CDB"/>
<path d="M351.552 225.109C351.915 225.361 352.005 225.861 351.753 226.224C351.502 226.588 351.003 226.678 350.639 226.426L334.063 214.922C333.7 214.67 333.609 214.17 333.861 213.807C334.113 213.443 334.612 213.353 334.975 213.605L351.552 225.109Z" fill="#DF4C32"/>
<path d="M357.456 222.359C357.588 222.781 357.353 223.231 356.931 223.364C356.509 223.496 356.06 223.261 355.928 222.839L351.103 207.447C350.971 207.024 351.206 206.575 351.628 206.442C352.049 206.31 352.499 206.545 352.631 206.967L357.456 222.359Z" fill="#DF4C32"/>
<path d="M365.135 222.741C364.998 223.162 364.546 223.392 364.126 223.255C363.705 223.118 363.475 222.666 363.612 222.246L367.615 209.918C367.751 209.497 368.203 209.267 368.623 209.404C369.044 209.54 369.274 209.993 369.137 210.413L365.135 222.741Z" fill="#DF4C32"/>
<path d="M370.939 226.264C370.558 226.49 370.067 226.364 369.842 225.983C369.617 225.602 369.743 225.111 370.124 224.885L388.76 213.846C389.141 213.621 389.632 213.747 389.857 214.128C390.082 214.509 389.956 215 389.575 215.225L370.939 226.264Z" fill="#DF4C32"/>
<path d="M228.949 326.735C234.875 320.554 243.601 311.588 247.929 324.798C252.257 338.008 232.087 393.188 235.168 410.838C235.396 416.937 224.894 419.815 222.972 411.796C223.442 402.366 228.5 372.425 224.832 359.548C219.404 340.491 225.6 330.227 228.949 326.735Z" fill="#FFC0BF"/>
<path d="M219.81 419.85C215.588 417.168 216.663 411.42 222.566 406.754C224.057 405.575 224.846 410.032 227.513 411.043C229.153 411.666 233.012 409.331 234.839 410.454C241.798 414.732 248.823 420.735 251.639 423.569C256.395 428.354 256.219 430.232 251.932 431.417C247.644 432.603 224.033 422.531 219.81 419.85Z" fill="#253238"/>
<path d="M236.138 415.251C235.795 415.529 235.291 415.476 235.012 415.133C234.734 414.789 234.787 414.284 235.131 414.006L238.924 410.93C239.268 410.652 239.772 410.705 240.05 411.048C240.329 411.392 240.276 411.897 239.932 412.175L236.138 415.251Z" fill="#6F787C"/>
<path d="M238.631 417.556C238.287 417.834 237.783 417.781 237.505 417.437C237.227 417.093 237.28 416.589 237.623 416.31L241.417 413.235C241.761 412.956 242.265 413.009 242.543 413.353C242.821 413.697 242.768 414.202 242.425 414.48L238.631 417.556Z" fill="#6F787C"/>
<path d="M241.084 419.892C240.74 420.171 240.236 420.118 239.958 419.774C239.68 419.43 239.733 418.925 240.076 418.647L243.87 415.571C244.214 415.293 244.718 415.346 244.996 415.69C245.274 416.033 245.221 416.538 244.878 416.817L241.084 419.892Z" fill="#6F787C"/>
<path d="M217.995 414.36C217.819 413.954 218.006 413.482 218.411 413.306C218.817 413.13 219.288 413.317 219.464 413.723C220.53 416.184 221.842 417.746 223.378 418.45C227.781 420.469 244.262 427.243 247.129 428.042C248.995 428.563 250.555 428.805 251.647 428.721C252.671 428.642 253.092 428.337 253.132 427.74C253.162 427.299 253.544 426.965 253.985 426.995C254.426 427.025 254.759 427.407 254.729 427.849C254.627 429.371 253.502 430.185 251.77 430.318C250.454 430.42 248.729 430.152 246.699 429.586C243.725 428.756 227.19 421.961 222.711 419.907C220.769 419.017 219.205 417.154 217.995 414.36Z" fill="#6F787C"/>
<path d="M242.521 254.768C248.819 272.424 250.72 308.48 253.183 320.191C255.646 331.902 246.409 380.529 244.87 382.994C243.331 385.46 237.261 387.191 237.173 388.916C237.047 391.365 236.828 393.108 237.173 395.08C237.401 401.18 225.495 400.633 223.572 392.614C223.725 389.557 224.297 386.359 224.875 382.994C225.097 381.701 223.572 382.994 221.47 379.362C219.368 375.731 222.272 365.344 221.47 355.94C219.893 337.449 221.593 329.271 224.875 324.505C221.665 320.93 210.386 284.133 206.851 261.943C204.663 248.211 194.683 241.911 206.851 220.908C210.871 213.968 245.85 209.047 251.976 217.179C258.102 225.311 266.408 235.173 265.492 235.173C265.161 235.173 257.099 241.245 248.604 246.532C245.89 248.221 243.11 249.041 240.552 250.583C241.392 252.116 241.872 252.95 242.521 254.768Z" fill="#1D5EF8"/>
<path d="M241.493 251.316C241.089 251.496 240.616 251.314 240.437 250.909C240.257 250.505 240.439 250.031 240.843 249.852C246.267 247.439 249.758 245.143 251.297 243.024C251.557 242.666 252.058 242.587 252.415 242.848C252.773 243.108 252.852 243.609 252.592 243.967C250.847 246.369 247.153 248.798 241.493 251.316Z" fill="#5296FC"/>
<path d="M211.303 237.987C211.282 237.647 211.54 237.354 211.879 237.333C212.219 237.311 212.511 237.569 212.533 237.909C214.376 267.227 217.652 287.616 222.34 299.043C229.871 317.396 233.302 344.394 229.449 359.526C228.974 361.391 225.668 373.628 225.262 375.71C224.632 378.936 224.872 380.36 226.158 381.39C226.424 381.602 226.467 381.99 226.254 382.256C226.042 382.522 225.654 382.565 225.389 382.352C223.66 380.968 223.344 379.102 224.053 375.473C224.469 373.341 227.792 361.042 228.256 359.221C232.037 344.374 228.639 317.637 221.201 299.511C216.448 287.927 213.155 267.43 211.303 237.987Z" fill="#5296FC"/>
<path d="M224.369 387.75C224.016 387.485 223.944 386.983 224.209 386.629C224.474 386.275 224.976 386.203 225.33 386.468C229.651 389.712 233.191 390.766 235.966 389.747C236.381 389.595 236.841 389.808 236.993 390.224C237.146 390.639 236.932 391.099 236.517 391.252C233.135 392.493 229.08 391.287 224.369 387.75Z" fill="#C3CBFF"/>
<path d="M224.369 392.065C224.016 391.799 223.944 391.297 224.209 390.943C224.474 390.589 224.976 390.517 225.33 390.783C229.651 394.027 233.191 395.08 235.966 394.062C236.381 393.909 236.841 394.123 236.993 394.538C237.146 394.954 236.932 395.414 236.517 395.566C233.135 396.808 229.08 395.601 224.369 392.065Z" fill="#C3CBFF"/>
<path d="M238.888 246.881C238.72 246.471 238.916 246.003 239.326 245.836C239.735 245.668 240.202 245.864 240.37 246.274C242.227 250.818 243.673 254.849 244.707 258.371C244.832 258.795 244.589 259.24 244.165 259.365C243.741 259.49 243.296 259.247 243.171 258.823C242.153 255.358 240.725 251.377 238.888 246.881Z" fill="#5296FC"/>
<path d="M330.558 148.383C315.964 167.836 306.464 179.079 302.059 182.112C300.558 183.145 299.185 183.848 297.958 184.232C296.885 184.951 295.305 185.538 293.171 185.971C284.444 187.744 251.914 169.908 247.979 166.119C244.044 162.33 242.199 156.444 250.925 154.672C258.874 153.057 283.099 166.128 292.41 172.641C297.718 163.17 321.313 145.2 328.205 139.981C328.743 137.899 329.933 135.996 331.576 134.886C332.765 134.084 333.306 136.536 334.469 135.869C335.991 134.996 339.647 133.816 341.256 136.203C343.702 139.833 343.286 146.73 339.816 149.072C336.944 151.012 333.163 150.631 330.558 148.383Z" fill="#FFC0BF"/>
<path d="M247.979 166.119C244.044 162.33 242.199 156.444 250.925 154.672C256.129 153.614 268.309 158.852 278.713 164.423C285.753 168.192 278.818 186.186 270.11 182.165C259.282 177.165 250.16 168.219 247.979 166.119Z" fill="#5296FB"/>
<path fill-rule="evenodd" clip-rule="evenodd" d="M290.939 172.723C289.39 174.02 288.584 175.312 288.584 176.618C288.584 177.238 289.394 177.47 289.722 176.945L291.857 173.523C292.228 172.928 291.477 172.274 290.939 172.723ZM291.729 173.669C290.433 174.754 289.816 175.743 289.816 176.618L288.678 176.292L290.812 172.87L291.729 173.669Z" fill="#FF7371"/>
<path d="M219.598 145.936C228.423 138.228 253.183 150.222 260.237 160.315C262.784 163.961 258.955 167.287 258.359 174.681C257.889 180.504 261.857 189.876 255.891 196.891C250.07 203.735 249.586 218.664 252.544 228.038C252.687 228.49 217.927 234.003 207.985 220.678C204.38 215.847 220.487 213.031 214.434 192.419C208.895 173.556 208.038 156.034 219.598 145.936Z" fill="#FFC0BF"/>
<path d="M219 145.183C221.313 143.162 225.263 143.036 229.16 143.334C233.626 143.675 231.693 165.094 246.409 166.905C262.502 168.885 246.038 148.846 249.424 150.696C252.811 152.545 259.599 157.72 261.181 159.668C263.4 162.399 258.992 169.784 259.813 171.924C262.681 179.402 266.091 184.751 255.561 197.132C250.776 202.757 252.207 214.525 258.102 220.072C259.1 221.011 259.1 226.544 250.713 230.859C242.325 235.173 217.597 234.244 207.654 220.919C204.05 216.088 217.473 208.042 211.42 187.429C205.881 168.567 207.44 155.281 219 145.183Z" fill="#5296FB"/>
<path d="M249.088 176.439C248.652 176.366 248.358 175.952 248.431 175.516C248.505 175.079 248.918 174.785 249.354 174.859C254.528 175.731 257.259 174.541 258.267 171.806C259.038 169.714 258.799 166.861 257.908 163.653C257.79 163.227 258.039 162.785 258.465 162.667C258.891 162.548 259.332 162.798 259.451 163.224C260.424 166.731 260.688 169.869 259.769 172.361C258.464 175.901 254.958 177.428 249.088 176.439Z" fill="#1D5EF8"/>
<path d="M239.653 129.236L253.758 133.019C249.582 143.569 247.502 151.341 247.517 156.333C247.54 163.822 235.255 158.9 233.412 152.55C232.183 148.317 234.264 140.545 239.653 129.236Z" fill="#FFC0BF"/>
<path d="M256.063 149.91C250.983 148.548 233.713 123.15 236.556 112.529C239.399 101.909 250.102 95.5523 260.461 98.3307C270.821 101.109 276.914 111.971 274.071 122.591C271.228 133.211 261.144 151.273 256.063 149.91Z" fill="#FFC0BF"/>
<path d="M241.007 121.383C241.056 121.046 241.368 120.812 241.704 120.86C242.041 120.909 242.275 121.221 242.226 121.558C241.747 124.893 242.559 126.375 244.677 126.419C245.122 126.428 245.41 126.891 245.223 127.294C244.533 128.787 244.145 129.964 244.058 130.807C244.022 131.146 243.72 131.392 243.381 131.357C243.043 131.321 242.798 131.018 242.833 130.68C242.92 129.845 243.229 128.808 243.758 127.559C241.417 127.097 240.496 124.94 241.007 121.383Z" fill="#FF7371"/>
<path fill-rule="evenodd" clip-rule="evenodd" d="M257.813 122.075L262.888 120.59C263.328 120.461 263.79 120.714 263.919 121.155C263.933 121.203 263.942 121.252 263.948 121.301C264.005 121.849 263.608 122.339 263.061 122.397L257.91 122.939C257.691 122.962 257.495 122.803 257.472 122.584C257.448 122.354 257.591 122.14 257.813 122.075Z" fill="#253238"/>
<path fill-rule="evenodd" clip-rule="evenodd" d="M275.018 125.679C275.222 125.792 275.32 126.033 275.252 126.256C275.187 126.468 274.963 126.587 274.751 126.522L270.597 125.251C270.068 125.089 269.771 124.529 269.932 123.999C269.949 123.946 269.971 123.894 269.997 123.845C270.214 123.451 270.709 123.307 271.102 123.524L275.018 125.679Z" fill="#253238"/>
<path fill-rule="evenodd" clip-rule="evenodd" d="M261.401 125.118C261.986 125.275 262.333 125.876 262.176 126.461L261.795 127.886C261.638 128.471 261.037 128.818 260.453 128.662C259.868 128.505 259.521 127.904 259.678 127.318L260.059 125.894C260.216 125.309 260.817 124.961 261.401 125.118Z" fill="#1C2229"/>
<path fill-rule="evenodd" clip-rule="evenodd" d="M269.134 127.639C269.718 127.796 270.065 128.397 269.908 128.982L269.527 130.407C269.37 130.992 268.77 131.339 268.185 131.183C267.601 131.026 267.254 130.425 267.41 129.839L267.792 128.415C267.948 127.83 268.549 127.482 269.134 127.639Z" fill="#1C2229"/>
<path d="M263.06 134.632C261.812 133.151 262.27 130.234 264.256 125.783C264.395 125.472 264.759 125.333 265.069 125.472C265.38 125.61 265.519 125.975 265.38 126.286C263.583 130.315 263.183 132.865 264.001 133.837C264.96 134.975 265.872 135.648 266.721 135.876C267.202 136.005 267.339 136.621 266.959 136.943C265.31 138.336 263.801 139.12 262.414 139.276C262.076 139.314 261.771 139.071 261.733 138.733C261.695 138.394 261.938 138.089 262.276 138.051C263.178 137.95 264.209 137.482 265.359 136.638C264.588 136.21 263.824 135.539 263.06 134.632Z" fill="#FF7371"/>
<path d="M250.435 144.149C250.669 144.397 250.658 144.787 250.411 145.021C250.164 145.255 249.774 145.244 249.541 144.997C247.495 142.833 246.121 141.001 245.416 139.484C245.273 139.175 245.407 138.809 245.715 138.665C246.023 138.522 246.39 138.655 246.533 138.964C247.172 140.339 248.473 142.073 250.435 144.149Z" fill="#FF7371"/>
<path d="M254.86 139.489C254.52 139.508 254.23 139.248 254.211 138.908C254.192 138.568 254.452 138.277 254.792 138.258C258.848 138.033 260.768 139.571 260.044 142.711C259.968 143.042 259.637 143.249 259.306 143.173C258.974 143.096 258.768 142.765 258.844 142.434C259.352 140.232 258.193 139.304 254.86 139.489Z" fill="#FF7371"/>
<path d="M214.318 87.6218C222.611 81.7456 235.693 94.3308 244.299 97.9798C248.605 94.6814 255.125 94.2951 265.399 100.628C274.941 106.511 284.95 103.024 281.571 115.647C278.191 128.271 271.139 119.021 270.792 116.08C268.823 119.452 262.567 121.989 252.705 122.622C252.16 122.657 250.825 127.103 249.555 126.762C248.284 126.422 248.676 123.678 248.869 122.543C249.062 121.408 247.362 117.154 244.949 117.694C242.536 118.233 240.823 120.459 240.924 122.622C241.553 128.617 240.116 133.251 238.834 132.907C234.601 131.772 235.054 118.143 236.507 112.714C237.05 110.685 237.692 108.529 238.519 106.457C232.777 107.931 229.804 110.082 229.598 112.91C229.259 117.566 221.557 137.007 210.417 142.184C198.757 147.602 177.564 136.933 187.979 136.166C198.394 135.398 202.341 115.569 209.396 95.1481C210.273 92.608 211.325 90.6924 212.515 89.2922C210.864 90.1842 208.621 93.6795 205.927 100.059C205.755 100.467 205.286 100.658 204.878 100.486C204.471 100.313 204.28 99.8433 204.452 99.4357C208.238 90.4676 211.433 86.3447 214.318 87.6218Z" fill="#253238"/>
<path d="M295.582 150.979C278.425 168.209 267.454 178.02 262.67 180.41C262.062 180.714 261.478 180.974 260.919 181.193C260.021 182.434 258.054 183.383 254.869 183.973C246.111 185.593 213.898 167.191 210.03 163.334C206.162 159.476 208.712 148.61 217.467 146.99C225.329 145.535 245.292 162.616 254.062 170.197C259.965 161.631 286.719 146.623 294.42 142.331C295.242 140.344 296.685 138.625 298.467 137.755C299.755 137.126 299.951 139.63 301.195 139.131C302.823 138.479 306.608 137.819 307.869 140.407C309.787 144.343 308.416 151.115 304.654 152.951C301.54 154.471 297.849 153.567 295.582 150.979Z" fill="#FFC0BF"/>
<path d="M209.763 164.29C203.954 155.296 211.302 144.875 219.615 144.875C227.929 144.875 243.939 161.378 243.939 162.749C243.939 164.121 240.596 177.537 232.239 179.083C223.482 180.704 215.572 173.284 209.763 164.29Z" fill="#5296FB"/>
<path d="M245.014 164.547C244.695 164.43 244.531 164.075 244.648 163.756C244.766 163.436 245.119 163.273 245.439 163.39C247.585 164.18 250.593 166.274 254.504 169.681C254.98 170.096 254.598 170.874 253.979 170.75C253.374 170.629 252.893 171.18 252.545 172.745C252.472 173.077 252.143 173.287 251.811 173.213C251.479 173.139 251.269 172.81 251.343 172.478C251.633 171.17 252.105 170.253 252.76 169.806C249.41 166.966 246.818 165.211 245.014 164.547Z" fill="#FF7371"/>
<path d="M237.075 174.392C237.283 174.001 237.768 173.853 238.158 174.062C238.548 174.27 238.696 174.755 238.488 175.146C236.721 178.461 234.76 180.193 232.547 180.193C228.978 180.193 220.065 175.731 217.718 172.207C217.359 171.668 217.038 171.307 216.776 171.127C216.621 171.021 216.561 171.01 216.523 171.024C216.236 171.138 215.821 171.934 215.468 173.414C215.365 173.844 214.933 174.11 214.503 174.007C214.073 173.904 213.808 173.472 213.91 173.042C214.874 169.001 216.957 168.175 219.05 171.318C221.09 174.381 229.498 178.59 232.547 178.59C234.028 178.59 235.557 177.24 237.075 174.392Z" fill="#1D5EF8"/>
<path d="M349.875 141.404L353.613 144.169C354.433 144.776 354.607 145.934 354.001 146.755C353.394 147.576 352.237 147.75 351.417 147.143L345.316 142.63C338.638 144.328 331.772 145.656 328.499 145.656C325.726 145.656 322.517 144.091 318.145 141.072C317.316 140.5 316.453 139.881 315.436 139.134C308.315 133.902 307.463 133.329 306.638 133.329C305.345 133.329 304.088 135.179 303.216 139.547C303.016 140.548 302.042 141.198 301.042 140.997C300.041 140.797 299.393 139.823 299.593 138.822C300.772 132.917 303.005 129.63 306.638 129.63C307.997 129.63 309.507 130.372 311.734 131.871C312.532 132.408 313.402 133.03 314.57 133.891C314.923 134.152 317.007 135.701 317.623 136.153C318.612 136.88 319.448 137.479 320.243 138.028C324.006 140.626 326.736 141.958 328.499 141.958C331.381 141.958 337.842 140.682 344.123 139.113C344.608 138.624 345.319 138.453 345.961 138.644C351.188 137.284 356.027 135.784 358.234 134.733C358.119 134.652 357.993 134.568 357.857 134.48C356.461 133.582 354.226 132.522 351.616 131.508C346.675 129.589 341.272 128.266 340.641 128.546C339.4 129.099 338.003 131.281 336.717 135.137C336.394 136.106 335.348 136.629 334.38 136.305C333.412 135.982 332.889 134.935 333.213 133.966C334.8 129.206 336.687 126.258 339.141 125.167C341.125 124.284 346.826 125.681 352.952 128.061C355.773 129.156 358.214 130.314 359.854 131.368C360.859 132.015 361.594 132.634 362.057 133.297C362.864 134.453 362.861 135.877 361.748 136.868C360.426 138.044 355.574 139.783 349.875 141.404Z" fill="#253238"/>
</svg>
